{
  "cells": [
    {
      "cell_type": "markdown",
      "id": "7909358a",
      "metadata": {},
      "source": [
        "# Root-centered mocap test\n",
        "\n",
        "Production pipeline: `utils_mocap_viz/worldpos_transform1.py` — horizontal root center (X/Z), Y fixed (ground at 0).  \n",
        "`MocapVisualizerBase` loads `extracted_mocap_csv/{base}_worldpos_root_centered.csv`."
      ]
    },
    {
      "cell_type": "code",
      "execution_count": 2,
      "id": "df9c6cba",
      "metadata": {},
      "outputs": [
        {
          "name": "stdout",
          "output_type": "stream",
          "text": [
            "Loaded 107339 frames from extracted_mocap_csv/BKO_E1_D1_01_Suku_T_worldpos.csv\n",
            "Root-centered CSV -> extracted_mocap_csv/BKO_E1_D1_01_Suku_T_worldpos_root_centered.csv\n",
            "\n",
            "Generating front view -> testing_output/BKO_E1_D1_01_Suku_T/front_view/front_view_145.0_146.0.mp4\n",
            "Using cached root-centered worldpos: extracted_mocap_csv/BKO_E1_D1_01_Suku_T_worldpos_root_centered.csv\n"
          ]
        },
        {
          "name": "stderr",
          "output_type": "stream",
          "text": [
            "Exception ignored in: <function BasePlotter.__del__ at 0x7fea6f6fa0c0>\n",
            "Traceback (most recent call last):\n",
            "  File \"/itf-fi-ml/home/sagardu/miniconda3/lib/python3.12/site-packages/pyvista/plotting/plotter.py\", line 6585, in __del__\n",
            "    if self._initialized and not self._closed:\n",
            "       ^^^^^^^^^^^^^^^^^\n",
            "AttributeError: 'Plotter' object has no attribute '_initialized'\n",
            "Exception ignored in: <function BasePlotter.__del__ at 0x7fea6f6fa0c0>\n",
            "Traceback (most recent call last):\n",
            "  File \"/itf-fi-ml/home/sagardu/miniconda3/lib/python3.12/site-packages/pyvista/plotting/plotter.py\", line 6585, in __del__\n",
            "    if self._initialized and not self._closed:\n",
            "       ^^^^^^^^^^^^^^^^^\n",
            "AttributeError: 'Plotter' object has no attribute '_initialized'\n"
          ]
        },
        {
          "name": "stdout",
          "output_type": "stream",
          "text": [
            "Frame 34800 valid markers: 28/28\n",
            "Frame 34800 valid markers: 28/28\n",
            "Frame 34810 valid markers: 28/28\n",
            "Frame 34820 valid markers: 28/28\n",
            "Frame 34830 valid markers: 28/28\n",
            "Frame 34840 valid markers: 28/28\n",
            "Frame 34850 valid markers: 28/28\n",
            "Frame 34860 valid markers: 28/28\n",
            "Frame 34870 valid markers: 28/28\n",
            "Frame 34880 valid markers: 28/28\n",
            "Frame 34890 valid markers: 28/28\n",
            "Frame 34900 valid markers: 28/28\n",
            "Frame 34910 valid markers: 28/28\n",
            "Frame 34920 valid markers: 28/28\n",
            "Frame 34930 valid markers: 28/28\n",
            "Frame 34940 valid markers: 28/28\n",
            "Frame 34950 valid markers: 28/28\n",
            "Frame 34960 valid markers: 28/28\n",
            "Frame 34970 valid markers: 28/28\n",
            "Frame 34980 valid markers: 28/28\n",
            "Frame 34990 valid markers: 28/28\n",
            "Frame 35000 valid markers: 28/28\n",
            "Frame 35010 valid markers: 28/28\n",
            "Frame 35020 valid markers: 28/28\n",
            "Frame 35030 valid markers: 28/28\n",
            "Saved frame 24/24\n",
            "Converting frames to video...\n"
          ]
        },
        {
          "name": "stderr",
          "output_type": "stream",
          "text": [
            "ffmpeg version N-121749-g203c6a93d7 Copyright (c) 2000-2025 the FFmpeg developers\n",
            "  built with gcc 8 (GCC)\n",
            "  configuration: --prefix=/itf-fi-ml/home/sagardu/ffmpeg_build --pkg-config-flags=--static --extra-cflags=-I/itf-fi-ml/home/sagardu/ffmpeg_build/include --extra-ldflags=-L/itf-fi-ml/home/sagardu/ffmpeg_build/lib --extra-libs='-lpthread -lm' --bindir=/itf-fi-ml/home/sagardu/bin --enable-gpl --enable-libx264 --enable-shared\n",
            "  libavutil      60. 17.100 / 60. 17.100\n",
            "  libavcodec     62. 19.100 / 62. 19.100\n",
            "  libavformat    62.  6.101 / 62.  6.101\n",
            "  libavdevice    62.  2.100 / 62.  2.100\n",
            "  libavfilter    11.  9.100 / 11.  9.100\n",
            "  libswscale      9.  3.100 /  9.  3.100\n",
            "  libswresample   6.  2.100 /  6.  2.100\n",
            "Input #0, image2, from 'temp_frames_1780215577515635999/frame_%06d.png':\n",
            "  Duration: 00:00:01.00, start: 0.000000, bitrate: N/A\n",
            "  Stream #0:0: Video: png, rgb24(pc, gbr/unknown/unknown), 1280x720, 24 fps, 24 tbr, 24 tbn\n",
            "Stream mapping:\n",
            "  Stream #0:0 -> #0:0 (png (native) -> h264 (libx264))\n",
            "Press [q] to stop, [?] for help\n",
            "[libx264 @ 0xadecc0] using cpu capabilities: MMX2 SSE2Fast SSSE3 SSE4.2 AVX FMA3 BMI2 AVX2 AVX512\n",
            "[libx264 @ 0xadecc0] profile High, level 3.1, 4:2:0, 8-bit\n",
            "[libx264 @ 0xadecc0] 264 - core 165 - H.264/MPEG-4 AVC codec - Copyleft 2003-2025 - http://www.videolan.org/x264.html - options: cabac=1 ref=3 deblock=1:0:0 analyse=0x3:0x113 me=hex subme=7 psy=1 psy_rd=1.00:0.00 mixed_ref=1 me_range=16 chroma_me=1 trellis=1 8x8dct=1 cqm=0 deadzone=21,11 fast_pskip=1 chroma_qp_offset=-2 threads=22 lookahead_threads=3 sliced_threads=0 nr=0 decimate=1 interlaced=0 bluray_compat=0 constrained_intra=0 bframes=3 b_pyramid=2 b_adapt=1 b_bias=0 direct=1 weightb=1 open_gop=0 weightp=2 keyint=250 keyint_min=24 scenecut=40 intra_refresh=0 rc_lookahead=40 rc=crf mbtree=1 crf=23.0 qcomp=0.60 qpmin=0 qpmax=69 qpstep=4 ip_ratio=1.40 aq=1:1.00\n",
            "Output #0, mp4, to 'testing_output/BKO_E1_D1_01_Suku_T/front_view/front_view_145.0_146.0.mp4':\n",
            "  Metadata:\n",
            "    encoder         : Lavf62.6.101\n",
            "  Stream #0:0: Video: h264 (avc1 / 0x31637661), yuv420p(tv, progressive), 1280x720, q=2-31, 24 fps, 12288 tbn\n",
            "    Metadata:\n",
            "      encoder         : Lavc62.19.100 libx264\n",
            "    Side data:\n",
            "      CPB properties: bitrate max/min/avg: 0/0/0 buffer size: 0 vbv_delay: N/A\n",
            "[out#0/mp4 @ 0xadaa00] video:45KiB audio:0KiB subtitle:0KiB other streams:0KiB global headers:0KiB muxing overhead: 2.387011%\n",
            "frame=   24 fps=0.0 q=-1.0 Lsize=      46KiB time=00:00:00.91 bitrate= 414.4kbits/s speed=4.16x elapsed=0:00:00.22    \n",
            "[libx264 @ 0xadecc0] frame I:1     Avg QP:26.71  size:  4811\n",
            "[libx264 @ 0xadecc0] frame P:10    Avg QP:31.03  size:  2270\n",
            "[libx264 @ 0xadecc0] frame B:13    Avg QP:34.07  size:  1399\n",
            "[libx264 @ 0xadecc0] consecutive B-frames: 16.7% 16.7% 50.0% 16.7%\n",
            "[libx264 @ 0xadecc0] mb I  I16..4:  1.2% 94.7%  4.1%\n",
            "[libx264 @ 0xadecc0] mb P  I16..4:  0.2%  1.4%  1.0%  P16..4:  1.7%  1.0%  0.6%  0.0%  0.0%    skip:94.1%\n",
            "[libx264 @ 0xadecc0] mb B  I16..4:  0.0%  0.2%  0.2%  B16..8:  2.9%  1.6%  0.5%  direct: 0.1%  skip:94.5%  L0:56.0% L1:36.3% BI: 7.7%\n",
            "[libx264 @ 0xadecc0] 8x8 transform intra:84.4% inter:18.1%\n",
            "[libx264 @ 0xadecc0] coded y,uvDC,uvAC intra: 7.7% 2.2% 2.1% inter: 0.9% 0.1% 0.1%\n",
            "[libx264 @ 0xadecc0] i16 v,h,dc,p: 78% 17%  4%  0%\n",
            "[libx264 @ 0xadecc0] i8 v,h,dc,ddl,ddr,vr,hd,vl,hu: 84%  3% 13%  0%  0%  0%  0%  0%  0%\n",
            "[libx264 @ 0xadecc0] i4 v,h,dc,ddl,ddr,vr,hd,vl,hu: 42% 15% 26%  2%  3%  4%  3%  3%  1%\n",
            "[libx264 @ 0xadecc0] i8c dc,h,v,p: 98%  0%  1%  0%\n",
            "[libx264 @ 0xadecc0] Weighted P-Frames: Y:0.0% UV:0.0%\n",
            "[libx264 @ 0xadecc0] ref P L0: 72.1%  2.9% 15.5%  9.5%\n",
            "[libx264 @ 0xadecc0] ref B L0: 75.9% 19.1%  5.0%\n",
            "[libx264 @ 0xadecc0] ref B L1: 95.3%  4.7%\n",
            "[libx264 @ 0xadecc0] kb/s:365.60\n"
          ]
        },
        {
          "name": "stdout",
          "output_type": "stream",
          "text": [
            "Video generation complete! Saved to testing_output/BKO_E1_D1_01_Suku_T/front_view/front_view_145.0_146.0.mp4\n",
            "\n",
            "Generating left view -> testing_output/BKO_E1_D1_01_Suku_T/left_view/left_view_145.0_146.0.mp4\n",
            "Using cached root-centered worldpos: extracted_mocap_csv/BKO_E1_D1_01_Suku_T_worldpos_root_centered.csv\n"
          ]
        },
        {
          "name": "stderr",
          "output_type": "stream",
          "text": [
            "Exception ignored in: <function BasePlotter.__del__ at 0x7fea6f6fa0c0>\n",
            "Traceback (most recent call last):\n",
            "  File \"/itf-fi-ml/home/sagardu/miniconda3/lib/python3.12/site-packages/pyvista/plotting/plotter.py\", line 6585, in __del__\n",
            "    if self._initialized and not self._closed:\n",
            "       ^^^^^^^^^^^^^^^^^\n",
            "AttributeError: 'Plotter' object has no attribute '_initialized'\n",
            "Exception ignored in: <function BasePlotter.__del__ at 0x7fea6f6fa0c0>\n",
            "Traceback (most recent call last):\n",
            "  File \"/itf-fi-ml/home/sagardu/miniconda3/lib/python3.12/site-packages/pyvista/plotting/plotter.py\", line 6585, in __del__\n",
            "    if self._initialized and not self._closed:\n",
            "       ^^^^^^^^^^^^^^^^^\n",
            "AttributeError: 'Plotter' object has no attribute '_initialized'\n"
          ]
        },
        {
          "name": "stdout",
          "output_type": "stream",
          "text": [
            "Frame 34800 valid markers: 28/28\n",
            "Frame 34800 valid markers: 28/28\n",
            "Frame 34810 valid markers: 28/28\n",
            "Frame 34820 valid markers: 28/28\n",
            "Frame 34830 valid markers: 28/28\n",
            "Frame 34840 valid markers: 28/28\n",
            "Frame 34850 valid markers: 28/28\n",
            "Frame 34860 valid markers: 28/28\n",
            "Frame 34870 valid markers: 28/28\n",
            "Frame 34880 valid markers: 28/28\n",
            "Frame 34890 valid markers: 28/28\n",
            "Frame 34900 valid markers: 28/28\n",
            "Frame 34910 valid markers: 28/28\n",
            "Frame 34920 valid markers: 28/28\n",
            "Frame 34930 valid markers: 28/28\n",
            "Frame 34940 valid markers: 28/28\n",
            "Frame 34950 valid markers: 28/28\n",
            "Frame 34960 valid markers: 28/28\n",
            "Frame 34970 valid markers: 28/28\n",
            "Frame 34980 valid markers: 28/28\n",
            "Frame 34990 valid markers: 28/28\n",
            "Frame 35000 valid markers: 28/28\n",
            "Frame 35010 valid markers: 28/28\n",
            "Frame 35020 valid markers: 28/28\n",
            "Frame 35030 valid markers: 28/28\n",
            "Saved frame 24/24\n",
            "Converting frames to video...\n"
          ]
        },
        {
          "name": "stderr",
          "output_type": "stream",
          "text": [
            "ffmpeg version N-121749-g203c6a93d7 Copyright (c) 2000-2025 the FFmpeg developers\n",
            "  built with gcc 8 (GCC)\n",
            "  configuration: --prefix=/itf-fi-ml/home/sagardu/ffmpeg_build --pkg-config-flags=--static --extra-cflags=-I/itf-fi-ml/home/sagardu/ffmpeg_build/include --extra-ldflags=-L/itf-fi-ml/home/sagardu/ffmpeg_build/lib --extra-libs='-lpthread -lm' --bindir=/itf-fi-ml/home/sagardu/bin --enable-gpl --enable-libx264 --enable-shared\n",
            "  libavutil      60. 17.100 / 60. 17.100\n",
            "  libavcodec     62. 19.100 / 62. 19.100\n",
            "  libavformat    62.  6.101 / 62.  6.101\n",
            "  libavdevice    62.  2.100 / 62.  2.100\n",
            "  libavfilter    11.  9.100 / 11.  9.100\n",
            "  libswscale      9.  3.100 /  9.  3.100\n",
            "  libswresample   6.  2.100 /  6.  2.100\n",
            "Input #0, image2, from 'temp_frames_1780215583350056242/frame_%06d.png':\n",
            "  Duration: 00:00:01.00, start: 0.000000, bitrate: N/A\n",
            "  Stream #0:0: Video: png, rgb24(pc, gbr/unknown/unknown), 1280x720, 24 fps, 24 tbr, 24 tbn\n",
            "Stream mapping:\n",
            "  Stream #0:0 -> #0:0 (png (native) -> h264 (libx264))\n",
            "Press [q] to stop, [?] for help\n",
            "[libx264 @ 0xf4d6c0] using cpu capabilities: MMX2 SSE2Fast SSSE3 SSE4.2 AVX FMA3 BMI2 AVX2 AVX512\n",
            "[libx264 @ 0xf4d6c0] profile High, level 3.1, 4:2:0, 8-bit\n",
            "[libx264 @ 0xf4d6c0] 264 - core 165 - H.264/MPEG-4 AVC codec - Copyleft 2003-2025 - http://www.videolan.org/x264.html - options: cabac=1 ref=3 deblock=1:0:0 analyse=0x3:0x113 me=hex subme=7 psy=1 psy_rd=1.00:0.00 mixed_ref=1 me_range=16 chroma_me=1 trellis=1 8x8dct=1 cqm=0 deadzone=21,11 fast_pskip=1 chroma_qp_offset=-2 threads=22 lookahead_threads=3 sliced_threads=0 nr=0 decimate=1 interlaced=0 bluray_compat=0 constrained_intra=0 bframes=3 b_pyramid=2 b_adapt=1 b_bias=0 direct=1 weightb=1 open_gop=0 weightp=2 keyint=250 keyint_min=24 scenecut=40 intra_refresh=0 rc_lookahead=40 rc=crf mbtree=1 crf=23.0 qcomp=0.60 qpmin=0 qpmax=69 qpstep=4 ip_ratio=1.40 aq=1:1.00\n",
            "Output #0, mp4, to 'testing_output/BKO_E1_D1_01_Suku_T/left_view/left_view_145.0_146.0.mp4':\n",
            "  Metadata:\n",
            "    encoder         : Lavf62.6.101\n",
            "  Stream #0:0: Video: h264 (avc1 / 0x31637661), yuv420p(tv, progressive), 1280x720, q=2-31, 24 fps, 12288 tbn\n",
            "    Metadata:\n",
            "      encoder         : Lavc62.19.100 libx264\n",
            "    Side data:\n",
            "      CPB properties: bitrate max/min/avg: 0/0/0 buffer size: 0 vbv_delay: N/A\n",
            "[out#0/mp4 @ 0xf48a00] video:71KiB audio:0KiB subtitle:0KiB other streams:0KiB global headers:0KiB muxing overhead: 1.483196%\n",
            "frame=   24 fps=0.0 q=-1.0 Lsize=      72KiB time=00:00:00.91 bitrate= 646.7kbits/s speed=4.18x elapsed=0:00:00.21    \n",
            "[libx264 @ 0xf4d6c0] frame I:1     Avg QP:18.76  size:  4624\n",
            "[libx264 @ 0xf4d6c0] frame P:15    Avg QP:29.70  size:  3253\n",
            "[libx264 @ 0xf4d6c0] frame B:8     Avg QP:32.27  size:  2365\n",
            "[libx264 @ 0xf4d6c0] consecutive B-frames: 45.8% 25.0% 12.5% 16.7%\n",
            "[libx264 @ 0xf4d6c0] mb I  I16..4: 45.5% 50.3%  4.2%\n",
            "[libx264 @ 0xf4d6c0] mb P  I16..4:  0.2%  2.1%  1.6%  P16..4:  1.4%  0.9%  0.8%  0.0%  0.0%    skip:93.1%\n",
            "[libx264 @ 0xf4d6c0] mb B  I16..4:  0.0%  0.2%  0.7%  B16..8:  3.2%  1.4%  0.8%  direct: 0.2%  skip:93.5%  L0:47.0% L1:48.7% BI: 4.3%\n",
            "[libx264 @ 0xf4d6c0] 8x8 transform intra:50.6% inter:13.6%\n",
            "[libx264 @ 0xf4d6c0] coded y,uvDC,uvAC intra: 12.6% 4.0% 3.9% inter: 1.1% 0.1% 0.1%\n",
            "[libx264 @ 0xf4d6c0] i16 v,h,dc,p: 92%  2%  6%  0%\n",
            "[libx264 @ 0xf4d6c0] i8 v,h,dc,ddl,ddr,vr,hd,vl,hu: 30%  2% 67%  1%  0%  0%  0%  0%  0%\n",
            "[libx264 @ 0xf4d6c0] i4 v,h,dc,ddl,ddr,vr,hd,vl,hu: 25% 12% 35%  9%  2%  6%  1%  7%  3%\n",
            "[libx264 @ 0xf4d6c0] i8c dc,h,v,p: 98%  1%  1%  0%\n",
            "[libx264 @ 0xf4d6c0] Weighted P-Frames: Y:0.0% UV:0.0%\n",
            "[libx264 @ 0xf4d6c0] ref P L0: 67.8%  4.8% 17.2% 10.2%\n",
            "[libx264 @ 0xf4d6c0] ref B L0: 76.2% 18.3%  5.5%\n",
            "[libx264 @ 0xf4d6c0] ref B L1: 97.0%  3.0%\n",
            "[libx264 @ 0xf4d6c0] kb/s:578.74\n"
          ]
        },
        {
          "name": "stdout",
          "output_type": "stream",
          "text": [
            "Video generation complete! Saved to testing_output/BKO_E1_D1_01_Suku_T/left_view/left_view_145.0_146.0.mp4\n",
            "\n",
            "Generating right view -> testing_output/BKO_E1_D1_01_Suku_T/right_view/right_view_145.0_146.0.mp4\n",
            "Using cached root-centered worldpos: extracted_mocap_csv/BKO_E1_D1_01_Suku_T_worldpos_root_centered.csv\n"
          ]
        },
        {
          "name": "stderr",
          "output_type": "stream",
          "text": [
            "Exception ignored in: <function BasePlotter.__del__ at 0x7fea6f6fa0c0>\n",
            "Traceback (most recent call last):\n",
            "  File \"/itf-fi-ml/home/sagardu/miniconda3/lib/python3.12/site-packages/pyvista/plotting/plotter.py\", line 6585, in __del__\n",
            "    if self._initialized and not self._closed:\n",
            "       ^^^^^^^^^^^^^^^^^\n",
            "AttributeError: 'Plotter' object has no attribute '_initialized'\n",
            "Exception ignored in: <function BasePlotter.__del__ at 0x7fea6f6fa0c0>\n",
            "Traceback (most recent call last):\n",
            "  File \"/itf-fi-ml/home/sagardu/miniconda3/lib/python3.12/site-packages/pyvista/plotting/plotter.py\", line 6585, in __del__\n",
            "    if self._initialized and not self._closed:\n",
            "       ^^^^^^^^^^^^^^^^^\n",
            "AttributeError: 'Plotter' object has no attribute '_initialized'\n"
          ]
        },
        {
          "name": "stdout",
          "output_type": "stream",
          "text": [
            "Frame 34800 valid markers: 28/28\n",
            "Frame 34800 valid markers: 28/28\n",
            "Frame 34810 valid markers: 28/28\n",
            "Frame 34820 valid markers: 28/28\n",
            "Frame 34830 valid markers: 28/28\n",
            "Frame 34840 valid markers: 28/28\n",
            "Frame 34850 valid markers: 28/28\n",
            "Frame 34860 valid markers: 28/28\n",
            "Frame 34870 valid markers: 28/28\n",
            "Frame 34880 valid markers: 28/28\n",
            "Frame 34890 valid markers: 28/28\n",
            "Frame 34900 valid markers: 28/28\n",
            "Frame 34910 valid markers: 28/28\n",
            "Frame 34920 valid markers: 28/28\n",
            "Frame 34930 valid markers: 28/28\n",
            "Frame 34940 valid markers: 28/28\n",
            "Frame 34950 valid markers: 28/28\n",
            "Frame 34960 valid markers: 28/28\n",
            "Frame 34970 valid markers: 28/28\n",
            "Frame 34980 valid markers: 28/28\n",
            "Frame 34990 valid markers: 28/28\n",
            "Frame 35000 valid markers: 28/28\n",
            "Frame 35010 valid markers: 28/28\n",
            "Frame 35020 valid markers: 28/28\n",
            "Frame 35030 valid markers: 28/28\n",
            "Saved frame 24/24\n",
            "Converting frames to video...\n"
          ]
        },
        {
          "name": "stderr",
          "output_type": "stream",
          "text": [
            "ffmpeg version N-121749-g203c6a93d7 Copyright (c) 2000-2025 the FFmpeg developers\n",
            "  built with gcc 8 (GCC)\n",
            "  configuration: --prefix=/itf-fi-ml/home/sagardu/ffmpeg_build --pkg-config-flags=--static --extra-cflags=-I/itf-fi-ml/home/sagardu/ffmpeg_build/include --extra-ldflags=-L/itf-fi-ml/home/sagardu/ffmpeg_build/lib --extra-libs='-lpthread -lm' --bindir=/itf-fi-ml/home/sagardu/bin --enable-gpl --enable-libx264 --enable-shared\n",
            "  libavutil      60. 17.100 / 60. 17.100\n",
            "  libavcodec     62. 19.100 / 62. 19.100\n",
            "  libavformat    62.  6.101 / 62.  6.101\n",
            "  libavdevice    62.  2.100 / 62.  2.100\n",
            "  libavfilter    11.  9.100 / 11.  9.100\n",
            "  libswscale      9.  3.100 /  9.  3.100\n",
            "  libswresample   6.  2.100 /  6.  2.100\n",
            "Input #0, image2, from 'temp_frames_1780215587581463338/frame_%06d.png':\n",
            "  Duration: 00:00:01.00, start: 0.000000, bitrate: N/A\n",
            "  Stream #0:0: Video: png, rgb24(pc, gbr/unknown/unknown), 1280x720, 24 fps, 24 tbr, 24 tbn\n",
            "Stream mapping:\n",
            "  Stream #0:0 -> #0:0 (png (native) -> h264 (libx264))\n",
            "Press [q] to stop, [?] for help\n",
            "[libx264 @ 0x2597740] using cpu capabilities: MMX2 SSE2Fast SSSE3 SSE4.2 AVX FMA3 BMI2 AVX2 AVX512\n",
            "[libx264 @ 0x2597740] profile High, level 3.1, 4:2:0, 8-bit\n",
            "[libx264 @ 0x2597740] 264 - core 165 - H.264/MPEG-4 AVC codec - Copyleft 2003-2025 - http://www.videolan.org/x264.html - options: cabac=1 ref=3 deblock=1:0:0 analyse=0x3:0x113 me=hex subme=7 psy=1 psy_rd=1.00:0.00 mixed_ref=1 me_range=16 chroma_me=1 trellis=1 8x8dct=1 cqm=0 deadzone=21,11 fast_pskip=1 chroma_qp_offset=-2 threads=22 lookahead_threads=3 sliced_threads=0 nr=0 decimate=1 interlaced=0 bluray_compat=0 constrained_intra=0 bframes=3 b_pyramid=2 b_adapt=1 b_bias=0 direct=1 weightb=1 open_gop=0 weightp=2 keyint=250 keyint_min=24 scenecut=40 intra_refresh=0 rc_lookahead=40 rc=crf mbtree=1 crf=23.0 qcomp=0.60 qpmin=0 qpmax=69 qpstep=4 ip_ratio=1.40 aq=1:1.00\n",
            "Output #0, mp4, to 'testing_output/BKO_E1_D1_01_Suku_T/right_view/right_view_145.0_146.0.mp4':\n",
            "  Metadata:\n",
            "    encoder         : Lavf62.6.101\n",
            "  Stream #0:0: Video: h264 (avc1 / 0x31637661), yuv420p(tv, progressive), 1280x720, q=2-31, 24 fps, 12288 tbn\n",
            "    Metadata:\n",
            "      encoder         : Lavc62.19.100 libx264\n",
            "    Side data:\n",
            "      CPB properties: bitrate max/min/avg: 0/0/0 buffer size: 0 vbv_delay: N/A\n"
          ]
        },
        {
          "name": "stdout",
          "output_type": "stream",
          "text": [
            "Video generation complete! Saved to testing_output/BKO_E1_D1_01_Suku_T/right_view/right_view_145.0_146.0.mp4\n",
            "\n",
            "Generated:\n",
            "  front: testing_output/BKO_E1_D1_01_Suku_T/front_view/front_view_145.0_146.0.mp4\n",
            "  left: testing_output/BKO_E1_D1_01_Suku_T/left_view/left_view_145.0_146.0.mp4\n",
            "  right: testing_output/BKO_E1_D1_01_Suku_T/right_view/right_view_145.0_146.0.mp4\n"
          ]
        },
        {
          "name": "stderr",
          "output_type": "stream",
          "text": [
            "[out#0/mp4 @ 0x2593a00] video:69KiB audio:0KiB subtitle:0KiB other streams:0KiB global headers:0KiB muxing overhead: 1.524171%\n",
            "frame=   24 fps=0.0 q=-1.0 Lsize=      70KiB time=00:00:00.91 bitrate= 629.6kbits/s speed=3.62x elapsed=0:00:00.25    \n",
            "[libx264 @ 0x2597740] frame I:1     Avg QP:25.42  size:  4378\n",
            "[libx264 @ 0x2597740] frame P:16    Avg QP:30.24  size:  3043\n",
            "[libx264 @ 0x2597740] frame B:7     Avg QP:32.39  size:  2473\n",
            "[libx264 @ 0x2597740] consecutive B-frames: 50.0% 33.3%  0.0% 16.7%\n",
            "[libx264 @ 0x2597740] mb I  I16..4: 22.9% 73.1%  4.0%\n",
            "[libx264 @ 0x2597740] mb P  I16..4:  0.2%  2.2%  1.6%  P16..4:  1.1%  1.1%  0.9%  0.0%  0.0%    skip:93.0%\n",
            "[libx264 @ 0x2597740] mb B  I16..4:  0.0%  0.3%  0.9%  B16..8:  3.2%  1.3%  0.8%  direct: 0.2%  skip:93.4%  L0:47.7% L1:47.8% BI: 4.5%\n",
            "[libx264 @ 0x2597740] 8x8 transform intra:64.5% inter:13.9%\n",
            "[libx264 @ 0x2597740] coded y,uvDC,uvAC intra: 12.2% 4.1% 4.1% inter: 1.0% 0.1% 0.1%\n",
            "[libx264 @ 0x2597740] i16 v,h,dc,p: 88%  2% 10%  0%\n",
            "[libx264 @ 0x2597740] i8 v,h,dc,ddl,ddr,vr,hd,vl,hu: 43%  7% 49%  0%  0%  0%  0%  0%  0%\n",
            "[libx264 @ 0x2597740] i4 v,h,dc,ddl,ddr,vr,hd,vl,hu: 28% 16% 25%  3%  9%  8%  4%  5%  1%\n",
            "[libx264 @ 0x2597740] i8c dc,h,v,p: 97%  2%  1%  0%\n",
            "[libx264 @ 0x2597740] Weighted P-Frames: Y:0.0% UV:0.0%\n",
            "[libx264 @ 0x2597740] ref P L0: 65.7%  5.5% 19.4%  9.4%\n",
            "[libx264 @ 0x2597740] ref B L0: 74.8% 22.8%  2.4%\n",
            "[libx264 @ 0x2597740] ref B L1: 97.0%  3.0%\n",
            "[libx264 @ 0x2597740] kb/s:563.03\n"
          ]
        }
      ],
      "source": [
        "import os\n",
        "import pickle\n",
        "import numpy as np\n",
        "import pandas as pd\n",
        "import matplotlib.pyplot as plt\n",
        "from scipy.spatial.transform import Rotation\n",
        "\n",
        "from utils_mocap_viz.worldpos_transform_v1 import (\n",
        "    ensure_root_centered_worldpos_csv,\n",
        "    transform_worldpos_to_root_centered,\n",
        "    marker_names_from_columns,\n",
        ")\n",
        "from utils_mocap_viz.worldpos_transform_v1 import root_centered_worldpos_path\n",
        "from utils_mocap_viz.mocap_visualizer_F_view import MocapVisualizerFront\n",
        "from utils_mocap_viz.mocap_visualizer_LS_view import MocapVisualizerLeftSide\n",
        "from utils_mocap_viz.mocap_visualizer_RS_view import MocapVisualizerRightSide\n",
        "\n",
        "\n",
        "with open('data/selected_piece_list.pkl', 'rb') as f:\n",
        "    piece_list = pickle.load(f)\n",
        "\n",
        "c=0\n",
        "for piece in piece_list:\n",
        "    c+=1\n",
        "    if c>1:\n",
        "        break\n",
        "    # --- config ---\n",
        "    BASE_NAME = f\"{piece}_T\"\n",
        "    DIR_CSV = \"extracted_mocap_csv\"\n",
        "    BVH_FILE = os.path.join(\"data\", \"bvh_files\", f\"{BASE_NAME}.bvh\")\n",
        "\n",
        "\n",
        "    SOURCE_CSV = os.path.join(DIR_CSV, f\"{BASE_NAME}_worldpos.csv\")\n",
        "    ROOT_CENTERED_CSV = root_centered_worldpos_path(BASE_NAME, DIR_CSV)\n",
        "\n",
        "    TEST_DIR = \"testing_output\"\n",
        "    os.makedirs(TEST_DIR, exist_ok=True)\n",
        "    OUTPUT_DIR = os.path.join(TEST_DIR, BASE_NAME)\n",
        "\n",
        "    ROOT = \"Hips\"\n",
        "    LEFT_MARKER = \"LeftShoulder\"\n",
        "    RIGHT_MARKER = \"RightShoulder\"\n",
        "    FRONTAL_METHOD = \"frame\"  # \"frame\" | \"mean\" (JYU mc2frontal)\n",
        "\n",
        "    START_TIME = 145.0\n",
        "    END_TIME = 146.0\n",
        "\n",
        "\n",
        "    # ------------------------------\n",
        "\n",
        "    raw_df = pd.read_csv(SOURCE_CSV)\n",
        "    print(f\"Loaded {len(raw_df)} frames from {SOURCE_CSV}\")\n",
        "\n",
        "    ROOT_CENTERED_CSV = ensure_root_centered_worldpos_csv(SOURCE_CSV, force=True)\n",
        "    transformed_df = pd.read_csv(ROOT_CENTERED_CSV)\n",
        "    print(f\"Root-centered CSV -> {ROOT_CENTERED_CSV}\")\n",
        "\n",
        "    # ------------------------------\n",
        "\n",
        "\n",
        "\n",
        "    VIEW_CONFIG = [\n",
        "        (\"front\", MocapVisualizerFront, True),\n",
        "        (\"left\", MocapVisualizerLeftSide, False),\n",
        "        (\"right\", MocapVisualizerRightSide, False),\n",
        "    ]\n",
        "\n",
        "    os.makedirs(OUTPUT_DIR, exist_ok=True)\n",
        "    generated = {}\n",
        "\n",
        "    for view_name, vis_cls, show_info in VIEW_CONFIG:\n",
        "        view_dir = os.path.join(OUTPUT_DIR, f\"{view_name}_view\")\n",
        "        os.makedirs(view_dir, exist_ok=True)\n",
        "        output_file = os.path.join(\n",
        "            view_dir,\n",
        "            f\"{view_name}_view_{START_TIME:.1f}_{END_TIME:.1f}.mp4\",\n",
        "        )\n",
        "        print(f\"\\nGenerating {view_name} view -> {output_file}\")\n",
        "        visualizer = vis_cls(BVH_FILE, debug=True)\n",
        "        visualizer.generate_video(\n",
        "            output_file=output_file,\n",
        "            start_time=START_TIME,\n",
        "            end_time=END_TIME,\n",
        "            output_fps=24,\n",
        "            video_size=(1280, 720),\n",
        "            show_info=show_info,\n",
        "        )\n",
        "        visualizer.plotter.close()\n",
        "        generated[view_name] = output_file\n",
        "\n",
        "    print(\"\\nGenerated:\")\n",
        "    for view_name, path in generated.items():\n",
        "        print(f\"  {view_name}: {path}\")"
      ]
    }
  ],
  "metadata": {
    "kernelspec": {
      "display_name": "base",
      "language": "python",
      "name": "python3"
    },
    "language_info": {
      "codemirror_mode": {
        "name": "ipython",
        "version": 3
      },
      "file_extension": ".py",
      "mimetype": "text/x-python",
      "name": "python",
      "nbconvert_exporter": "python",
      "pygments_lexer": "ipython3",
      "version": "3.12.9"
    }
  },
  "nbformat": 4,
  "nbformat_minor": 5
}
